<svg width="120" height="120" viewBox="0 0 120 120" fill="none" xmlns="http://www.w3.org/2000/svg">
<circle cx="60" cy="60" r="58.5" fill="#001F74" stroke="#F8F5ED" stroke-width="3"/>
<path d="M57.8086 65.7383C57.4987 70.0221 55.9128 73.3945 53.0508 75.8555C50.207 78.3164 46.4518 79.5469 41.7852 79.5469C36.681 79.5469 32.6615 77.8333 29.7266 74.4062C26.8099 70.9609 25.3516 66.2396 25.3516 60.2422V57.8086C25.3516 53.9805 26.026 50.6081 27.375 47.6914C28.724 44.7747 30.6471 42.5417 33.1445 40.9922C35.6602 39.4245 38.5768 38.6406 41.8945 38.6406C46.4883 38.6406 50.1888 39.8711 52.9961 42.332C55.8034 44.793 57.4258 48.2474 57.8633 52.6953H49.6602C49.4596 50.125 48.7396 48.2656 47.5 47.1172C46.2786 45.9505 44.4102 45.3672 41.8945 45.3672C39.1602 45.3672 37.1094 46.3516 35.7422 48.3203C34.3932 50.2708 33.7005 53.306 33.6641 57.4258V60.4336C33.6641 64.7357 34.3112 67.8802 35.6055 69.8672C36.918 71.8542 38.9779 72.8477 41.7852 72.8477C44.319 72.8477 46.2057 72.2734 47.4453 71.125C48.7031 69.9583 49.4232 68.1628 49.6055 65.7383H57.8086ZM77.9336 64.4258H71.3984V79H63.1953V39.1875H77.9883C82.6914 39.1875 86.319 40.2357 88.8711 42.332C91.4232 44.4284 92.6992 47.3906 92.6992 51.2188C92.6992 53.9349 92.1068 56.2044 90.9219 58.0273C89.7552 59.832 87.9779 61.2721 85.5898 62.3477L94.2031 78.6172V79H85.3984L77.9336 64.4258ZM71.3984 57.7812H78.0156C80.0755 57.7812 81.6706 57.2617 82.8008 56.2227C83.931 55.1654 84.4961 53.7161 84.4961 51.875C84.4961 49.9974 83.9583 48.5208 82.8828 47.4453C81.8255 46.3698 80.194 45.832 77.9883 45.832H71.3984V57.7812Z" fill="#EAE0E0"/>
</svg>
